<?xml version="1.0" encoding="UTF-8" ?>
<!DOCTYPE svg PUBLIC "-//W3C//DTD SVG 1.1//EN" "http://www.w3.org/Graphics/SVG/1.1/DTD/svg11.dtd">
<svg width="512pt" height="512pt" viewBox="0 0 512 512" version="1.1" xmlns="http://www.w3.org/2000/svg">
<path fill="#f2a115" opacity="1.00" d=" M 0.00 0.00 L 512.00 0.00 L 512.00 512.00 L 0.00 512.00 L 0.00 0.00 Z" />
<path fill="#ffffff" opacity="1.00" d=" M 156.85 116.86 C 212.35 116.82 267.85 116.87 323.34 116.83 C 323.33 165.21 323.38 213.59 323.32 261.97 C 323.27 263.06 323.41 264.12 323.74 265.16 C 327.46 274.10 331.14 283.06 334.72 292.06 C 335.72 298.60 334.45 305.31 335.05 311.91 C 334.65 338.16 335.35 364.38 334.89 390.64 C 330.09 390.53 325.29 390.59 320.49 390.58 C 320.60 356.76 320.44 322.94 320.58 289.13 C 319.04 288.99 317.51 288.86 315.99 288.84 C 269.39 288.90 222.80 288.80 176.21 288.90 C 176.28 322.79 175.91 356.68 176.29 390.56 C 169.82 391.01 163.33 390.65 156.84 390.77 C 156.85 299.47 156.83 208.16 156.85 116.86 Z" />
<path fill="#ffffff" opacity="1.00" d=" M 329.68 122.41 C 338.16 122.08 346.66 122.36 355.15 122.26 C 355.17 203.50 355.15 284.75 355.15 365.99 C 355.07 370.41 355.41 374.85 354.87 379.25 C 349.65 379.14 344.43 379.21 339.21 379.19 C 339.05 350.08 339.40 320.95 339.04 291.86 C 336.85 285.01 333.87 278.41 331.21 271.73 C 329.05 267.80 329.90 263.22 329.77 258.95 C 329.70 213.43 329.89 167.92 329.68 122.41 Z" />
<path fill="#ffffff" opacity="1.00" d=" M 180.57 293.51 C 199.37 292.67 218.24 293.57 237.06 293.04 C 253.36 293.11 269.66 293.30 285.95 293.11 C 295.44 293.46 304.96 292.55 314.42 293.56 C 314.99 327.67 314.50 361.81 314.67 395.93 C 304.24 395.83 293.81 395.89 283.38 395.90 C 283.41 372.09 283.33 348.28 283.43 324.47 C 265.63 324.14 247.83 324.42 230.03 324.33 C 223.90 324.43 217.77 324.09 211.65 324.52 C 211.86 348.31 211.69 372.10 211.74 395.89 C 201.21 395.87 190.68 395.87 180.15 395.89 C 180.14 364.95 180.15 334.00 180.14 303.06 C 180.10 299.87 180.00 296.66 180.57 293.51 Z" />
<path fill="#ffffff" opacity="1.00" d=" M 216.27 328.90 C 236.98 328.59 257.71 328.86 278.44 328.76 C 278.39 349.45 278.51 370.13 278.38 390.82 C 257.70 390.63 237.03 390.81 216.35 390.73 C 216.34 370.12 216.51 349.50 216.27 328.90 Z" />
</svg>
