<?xml version="1.0" encoding="UTF-8" ?>
<!DOCTYPE svg PUBLIC "-//W3C//DTD SVG 1.1//EN" "http://www.w3.org/Graphics/SVG/1.1/DTD/svg11.dtd">
<svg width="512pt" height="512pt" viewBox="0 0 512 512" version="1.1" xmlns="http://www.w3.org/2000/svg">
<path fill="#04aeda" opacity="1.00" d=" M 0.00 0.00 L 512.00 0.00 L 512.00 512.00 L 0.00 512.00 L 0.00 0.00 Z" />
<path fill="#ffffff" opacity="1.00" d=" M 270.57 145.44 C 310.74 145.58 350.92 145.28 391.08 145.60 C 393.31 155.31 395.90 164.93 398.44 174.57 C 353.32 174.64 308.20 174.59 263.08 174.59 C 265.58 164.87 268.00 155.14 270.57 145.44 Z" />
<path fill="#ffffff" opacity="1.00" d=" M 101.38 184.59 C 103.21 183.95 105.16 183.69 107.10 183.65 C 206.41 183.64 305.72 183.64 405.03 183.65 C 412.82 183.31 420.83 189.85 420.50 197.95 C 420.51 249.29 420.49 300.62 420.51 351.96 C 421.19 359.79 413.74 366.98 406.01 366.61 C 306.00 366.60 205.98 366.60 105.97 366.61 C 100.38 366.82 95.13 363.12 92.75 358.19 C 91.23 355.36 91.55 352.06 91.50 348.98 C 91.54 298.68 91.49 248.39 91.53 198.10 C 91.29 192.04 95.82 186.56 101.38 184.59 Z" />
</svg>
